ISO-10303-21;
HEADER;
/* Generated by software containing ST-Developer
 * from STEP Tools, Inc. (www.steptools.com) 
 */

FILE_DESCRIPTION(
/* description */ (''),
/* implementation_level */ '2;1');

FILE_NAME(
/* name */ 'Slate.step',
/* time_stamp */ '2023-12-21T05:28:01+01:00',
/* author */ (''),
/* organization */ (''),
/* preprocessor_version */ 'ST-DEVELOPER v20',
/* originating_system */ 'Autodesk Translation Framework v12.14.0.127',

/* authorisation */ '');

FILE_SCHEMA (('AUTOMOTIVE_DESIGN { 1 0 10303 214 3 1 1 }'));
ENDSEC;

DATA;
#10=MECHANICAL_DESIGN_GEOMETRIC_PRESENTATION_REPRESENTATION('',(#17),#1319);
#11=ITEM_DEFINED_TRANSFORMATION($,$,#839,#881);
#12=(
REPRESENTATION_RELATIONSHIP($,$,#1330,#1329)
REPRESENTATION_RELATIONSHIP_WITH_TRANSFORMATION(#11)
SHAPE_REPRESENTATION_RELATIONSHIP()
);
#13=CONTEXT_DEPENDENT_SHAPE_REPRESENTATION(#12,#1328);
#14=NEXT_ASSEMBLY_USAGE_OCCURRENCE('Schienenadapter:1',
'Schienenadapter:1','Schienenadapter:1',#1332,#1333,'Schienenadapter:1');
#15=SHAPE_REPRESENTATION_RELATIONSHIP('SRR','None',#1330,#16);
#16=ADVANCED_BREP_SHAPE_REPRESENTATION('',(#18),#1318);
#17=STYLED_ITEM('',(#1347),#18);
#18=MANIFOLD_SOLID_BREP('K\X\F6rper1',#825);
#19=FACE_BOUND('',#124,.T.);
#20=FACE_BOUND('',#132,.T.);
#21=FACE_BOUND('',#136,.T.);
#22=PLANE('',#843);
#23=PLANE('',#844);
#24=PLANE('',#845);
#25=PLANE('',#846);
#26=PLANE('',#847);
#27=PLANE('',#848);
#28=PLANE('',#849);
#29=PLANE('',#850);
#30=PLANE('',#851);
#31=PLANE('',#852);
#32=PLANE('',#853);
#33=PLANE('',#854);
#34=PLANE('',#855);
#35=PLANE('',#856);
#36=PLANE('',#857);
#37=PLANE('',#858);
#38=PLANE('',#859);
#39=PLANE('',#860);
#40=PLANE('',#861);
#41=PLANE('',#862);
#42=PLANE('',#863);
#43=PLANE('',#864);
#44=PLANE('',#865);
#45=PLANE('',#866);
#46=PLANE('',#867);
#47=PLANE('',#868);
#48=PLANE('',#869);
#49=PLANE('',#870);
#50=PLANE('',#871);
#51=PLANE('',#872);
#52=PLANE('',#873);
#53=PLANE('',#874);
#54=PLANE('',#875);
#55=PLANE('',#876);
#56=PLANE('',#877);
#57=PLANE('',#878);
#58=PLANE('',#879);
#59=PLANE('',#880);
#60=FACE_OUTER_BOUND('',#99,.T.);
#61=FACE_OUTER_BOUND('',#100,.T.);
#62=FACE_OUTER_BOUND('',#101,.T.);
#63=FACE_OUTER_BOUND('',#102,.T.);
#64=FACE_OUTER_BOUND('',#103,.T.);
#65=FACE_OUTER_BOUND('',#104,.T.);
#66=FACE_OUTER_BOUND('',#105,.T.);
#67=FACE_OUTER_BOUND('',#106,.T.);
#68=FACE_OUTER_BOUND('',#107,.T.);
#69=FACE_OUTER_BOUND('',#108,.T.);
#70=FACE_OUTER_BOUND('',#109,.T.);
#71=FACE_OUTER_BOUND('',#110,.T.);
#72=FACE_OUTER_BOUND('',#111,.T.);
#73=FACE_OUTER_BOUND('',#112,.T.);
#74=FACE_OUTER_BOUND('',#113,.T.);
#75=FACE_OUTER_BOUND('',#114,.T.);
#76=FACE_OUTER_BOUND('',#115,.T.);
#77=FACE_OUTER_BOUND('',#116,.T.);
#78=FACE_OUTER_BOUND('',#117,.T.);
#79=FACE_OUTER_BOUND('',#118,.T.);
#80=FACE_OUTER_BOUND('',#119,.T.);
#81=FACE_OUTER_BOUND('',#120,.T.);
#82=FACE_OUTER_BOUND('',#121,.T.);
#83=FACE_OUTER_BOUND('',#122,.T.);
#84=FACE_OUTER_BOUND('',#123,.T.);
#85=FACE_OUTER_BOUND('',#125,.T.);
#86=FACE_OUTER_BOUND('',#126,.T.);
#87=FACE_OUTER_BOUND('',#127,.T.);
#88=FACE_OUTER_BOUND('',#128,.T.);
#89=FACE_OUTER_BOUND('',#129,.T.);
#90=FACE_OUTER_BOUND('',#130,.T.);
#91=FACE_OUTER_BOUND('',#131,.T.);
#92=FACE_OUTER_BOUND('',#133,.T.);
#93=FACE_OUTER_BOUND('',#134,.T.);
#94=FACE_OUTER_BOUND('',#135,.T.);
#95=FACE_OUTER_BOUND('',#137,.T.);
#96=FACE_OUTER_BOUND('',#138,.T.);
#97=FACE_OUTER_BOUND('',#139,.T.);
#98=FACE_OUTER_BOUND('',#140,.T.);
#99=EDGE_LOOP('',(#557,#558,#559,#560));
#100=EDGE_LOOP('',(#561,#562,#563,#564,#565,#566,#567,#568,#569,#570,#571,
#572,#573,#574,#575,#576,#577,#578,#579,#580,#581,#582));
#101=EDGE_LOOP('',(#583,#584,#585,#586));
#102=EDGE_LOOP('',(#587,#588,#589,#590));
#103=EDGE_LOOP('',(#591,#592,#593,#594));
#104=EDGE_LOOP('',(#595,#596,#597,#598));
#105=EDGE_LOOP('',(#599,#600,#601,#602));
#106=EDGE_LOOP('',(#603,#604,#605,#606));
#107=EDGE_LOOP('',(#607,#608,#609,#610));
#108=EDGE_LOOP('',(#611,#612,#613,#614));
#109=EDGE_LOOP('',(#615,#616,#617,#618));
#110=EDGE_LOOP('',(#619,#620,#621,#622,#623,#624,#625,#626));
#111=EDGE_LOOP('',(#627,#628,#629,#630));
#112=EDGE_LOOP('',(#631,#632,#633,#634));
#113=EDGE_LOOP('',(#635,#636,#637,#638));
#114=EDGE_LOOP('',(#639,#640,#641,#642));
#115=EDGE_LOOP('',(#643,#644,#645,#646));
#116=EDGE_LOOP('',(#647,#648,#649,#650));
#117=EDGE_LOOP('',(#651,#652,#653,#654));
#118=EDGE_LOOP('',(#655,#656,#657,#658));
#119=EDGE_LOOP('',(#659,#660,#661,#662));
#120=EDGE_LOOP('',(#663,#664,#665,#666));
#121=EDGE_LOOP('',(#667,#668,#669,#670));
#122=EDGE_LOOP('',(#671,#672,#673,#674));
#123=EDGE_LOOP('',(#675,#676,#677,#678,#679,#680,#681,#682,#683,#684,#685,
#686,#687,#688,#689,#690,#691,#692,#693,#694,#695,#696,#697,#698,#699,#700));
#124=EDGE_LOOP('',(#701));
#125=EDGE_LOOP('',(#702,#703,#704,#705));
#126=EDGE_LOOP('',(#706,#707,#708,#709));
#127=EDGE_LOOP('',(#710,#711,#712,#713));
#128=EDGE_LOOP('',(#714,#715,#716,#717));
#129=EDGE_LOOP('',(#718,#719,#720,#721));
#130=EDGE_LOOP('',(#722,#723,#724,#725));
#131=EDGE_LOOP('',(#726,#727,#728,#729));
#132=EDGE_LOOP('',(#730,#731,#732,#733));
#133=EDGE_LOOP('',(#734,#735,#736,#737));
#134=EDGE_LOOP('',(#738,#739,#740,#741));
#135=EDGE_LOOP('',(#742,#743,#744,#745));
#136=EDGE_LOOP('',(#746));
#137=EDGE_LOOP('',(#747,#748,#749,#750));
#138=EDGE_LOOP('',(#751,#752,#753,#754));
#139=EDGE_LOOP('',(#755,#756,#757,#758,#759,#760,#761,#762,#763,#764,#765,
#766,#767,#768,#769));
#140=EDGE_LOOP('',(#770,#771,#772,#773,#774,#775,#776,#777,#778,#779,#780,
#781,#782,#783,#784));
#141=LINE('',#1088,#253);
#142=LINE('',#1093,#254);
#143=LINE('',#1095,#255);
#144=LINE('',#1097,#256);
#145=LINE('',#1099,#257);
#146=LINE('',#1101,#258);
#147=LINE('',#1103,#259);
#148=LINE('',#1105,#260);
#149=LINE('',#1107,#261);
#150=LINE('',#1109,#262);
#151=LINE('',#1111,#263);
#152=LINE('',#1113,#264);
#153=LINE('',#1115,#265);
#154=LINE('',#1117,#266);
#155=LINE('',#1119,#267);
#156=LINE('',#1121,#268);
#157=LINE('',#1123,#269);
#158=LINE('',#1125,#270);
#159=LINE('',#1127,#271);
#160=LINE('',#1129,#272);
#161=LINE('',#1131,#273);
#162=LINE('',#1133,#274);
#163=LINE('',#1134,#275);
#164=LINE('',#1138,#276);
#165=LINE('',#1140,#277);
#166=LINE('',#1142,#278);
#167=LINE('',#1143,#279);
#168=LINE('',#1147,#280);
#169=LINE('',#1148,#281);
#170=LINE('',#1149,#282);
#171=LINE('',#1152,#283);
#172=LINE('',#1153,#284);
#173=LINE('',#1156,#285);
#174=LINE('',#1157,#286);
#175=LINE('',#1160,#287);
#176=LINE('',#1161,#288);
#177=LINE('',#1164,#289);
#178=LINE('',#1165,#290);
#179=LINE('',#1168,#291);
#180=LINE('',#1169,#292);
#181=LINE('',#1172,#293);
#182=LINE('',#1173,#294);
#183=LINE('',#1176,#295);
#184=LINE('',#1177,#296);
#185=LINE('',#1181,#297);
#186=LINE('',#1182,#298);
#187=LINE('',#1184,#299);
#188=LINE('',#1186,#300);
#189=LINE('',#1187,#301);
#190=LINE('',#1188,#302);
#191=LINE('',#1191,#303);
#192=LINE('',#1192,#304);
#193=LINE('',#1194,#305);
#194=LINE('',#1198,#306);
#195=LINE('',#1199,#307);
#196=LINE('',#1200,#308);
#197=LINE('',#1202,#309);
#198=LINE('',#1206,#310);
#199=LINE('',#1207,#311);
#200=LINE('',#1208,#312);
#201=LINE('',#1211,#313);
#202=LINE('',#1212,#314);
#203=LINE('',#1215,#315);
#204=LINE('',#1216,#316);
#205=LINE('',#1219,#317);
#206=LINE('',#1220,#318);
#207=LINE('',#1223,#319);
#208=LINE('',#1224,#320);
#209=LINE('',#1227,#321);
#210=LINE('',#1228,#322);
#211=LINE('',#1231,#323);
#212=LINE('',#1232,#324);
#213=LINE('',#1234,#325);
#214=LINE('',#1236,#326);
#215=LINE('',#1238,#327);
#216=LINE('',#1240,#328);
#217=LINE('',#1241,#329);
#218=LINE('',#1245,#330);
#219=LINE('',#1247,#331);
#220=LINE('',#1249,#332);
#221=LINE('',#1250,#333);
#222=LINE('',#1253,#334);
#223=LINE('',#1255,#335);
#224=LINE('',#1256,#336);
#225=LINE('',#1259,#337);
#226=LINE('',#1261,#338);
#227=LINE('',#1262,#339);
#228=LINE('',#1264,#340);
#229=LINE('',#1265,#341);
#230=LINE('',#1269,#342);
#231=LINE('',#1270,#343);
#232=LINE('',#1271,#344);
#233=LINE('',#1274,#345);
#234=LINE('',#1276,#346);
#235=LINE('',#1277,#347);
#236=LINE('',#1280,#348);
#237=LINE('',#1282,#349);
#238=LINE('',#1283,#350);
#239=LINE('',#1286,#351);
#240=LINE('',#1288,#352);
#241=LINE('',#1289,#353);
#242=LINE('',#1292,#354);
#243=LINE('',#1294,#355);
#244=LINE('',#1295,#356);
#245=LINE('',#1298,#357);
#246=LINE('',#1300,#358);
#247=LINE('',#1301,#359);
#248=LINE('',#1304,#360);
#249=LINE('',#1306,#361);
#250=LINE('',#1307,#362);
#251=LINE('',#1309,#363);
#252=LINE('',#1310,#364);
#253=VECTOR('',#890,1.99999999999999);
#254=VECTOR('',#895,10.);
#255=VECTOR('',#896,10.);
#256=VECTOR('',#897,10.);
#257=VECTOR('',#898,10.);
#258=VECTOR('',#899,10.);
#259=VECTOR('',#900,10.);
#260=VECTOR('',#901,10.);
#261=VECTOR('',#902,10.);
#262=VECTOR('',#903,10.);
#263=VECTOR('',#904,10.);
#264=VECTOR('',#905,10.);
#265=VECTOR('',#906,10.);
#266=VECTOR('',#907,10.);
#267=VECTOR('',#908,10.);
#268=VECTOR('',#909,10.);
#269=VECTOR('',#910,10.);
#270=VECTOR('',#911,10.);
#271=VECTOR('',#912,10.);
#272=VECTOR('',#913,10.);
#273=VECTOR('',#914,10.);
#274=VECTOR('',#915,10.);
#275=VECTOR('',#916,10.);
#276=VECTOR('',#919,10.);
#277=VECTOR('',#920,10.);
#278=VECTOR('',#921,10.);
#279=VECTOR('',#922,10.);
#280=VECTOR('',#925,10.);
#281=VECTOR('',#926,10.);
#282=VECTOR('',#927,10.);
#283=VECTOR('',#930,10.);
#284=VECTOR('',#931,10.);
#285=VECTOR('',#934,10.);
#286=VECTOR('',#935,10.);
#287=VECTOR('',#938,10.);
#288=VECTOR('',#939,10.);
#289=VECTOR('',#942,10.);
#290=VECTOR('',#943,10.);
#291=VECTOR('',#946,10.);
#292=VECTOR('',#947,10.);
#293=VECTOR('',#950,10.);
#294=VECTOR('',#951,10.);
#295=VECTOR('',#954,10.);
#296=VECTOR('',#955,10.);
#297=VECTOR('',#958,10.);
#298=VECTOR('',#959,10.);
#299=VECTOR('',#960,10.);
#300=VECTOR('',#961,10.);
#301=VECTOR('',#962,10.);
#302=VECTOR('',#963,10.);
#303=VECTOR('',#966,10.);
#304=VECTOR('',#967,10.);
#305=VECTOR('',#970,10.);
#306=VECTOR('',#973,10.);
#307=VECTOR('',#974,10.);
#308=VECTOR('',#975,10.);
#309=VECTOR('',#978,10.);
#310=VECTOR('',#981,10.);
#311=VECTOR('',#982,10.);
#312=VECTOR('',#983,10.);
#313=VECTOR('',#986,10.);
#314=VECTOR('',#987,10.);
#315=VECTOR('',#990,10.);
#316=VECTOR('',#991,10.);
#317=VECTOR('',#994,10.);
#318=VECTOR('',#995,10.);
#319=VECTOR('',#998,10.);
#320=VECTOR('',#999,10.);
#321=VECTOR('',#1002,10.);
#322=VECTOR('',#1003,10.);
#323=VECTOR('',#1006,10.);
#324=VECTOR('',#1007,10.);
#325=VECTOR('',#1010,10.);
#326=VECTOR('',#1013,10.);
#327=VECTOR('',#1014,10.);
#328=VECTOR('',#1015,10.);
#329=VECTOR('',#1016,10.);
#330=VECTOR('',#1019,10.);
#331=VECTOR('',#1020,10.);
#332=VECTOR('',#1021,10.);
#333=VECTOR('',#1022,10.);
#334=VECTOR('',#1025,10.);
#335=VECTOR('',#1026,10.);
#336=VECTOR('',#1027,10.);
#337=VECTOR('',#1030,10.);
#338=VECTOR('',#1031,10.);
#339=VECTOR('',#1032,10.);
#340=VECTOR('',#1035,10.);
#341=VECTOR('',#1036,10.);
#342=VECTOR('',#1039,10.);
#343=VECTOR('',#1040,10.);
#344=VECTOR('',#1041,10.);
#345=VECTOR('',#1044,10.);
#346=VECTOR('',#1045,10.);
#347=VECTOR('',#1046,10.);
#348=VECTOR('',#1049,10.);
#349=VECTOR('',#1050,10.);
#350=VECTOR('',#1051,10.);
#351=VECTOR('',#1054,10.);
#352=VECTOR('',#1055,10.);
#353=VECTOR('',#1056,10.);
#354=VECTOR('',#1059,10.);
#355=VECTOR('',#1060,10.);
#356=VECTOR('',#1061,10.);
#357=VECTOR('',#1064,10.);
#358=VECTOR('',#1065,10.);
#359=VECTOR('',#1066,10.);
#360=VECTOR('',#1069,10.);
#361=VECTOR('',#1070,10.);
#362=VECTOR('',#1071,10.);
#363=VECTOR('',#1074,10.);
#364=VECTOR('',#1075,10.);
#365=CIRCLE('',#841,1.99999999999999);
#366=CIRCLE('',#842,1.99999999999999);
#367=VERTEX_POINT('',#1085);
#368=VERTEX_POINT('',#1087);
#369=VERTEX_POINT('',#1091);
#370=VERTEX_POINT('',#1092);
#371=VERTEX_POINT('',#1094);
#372=VERTEX_POINT('',#1096);
#373=VERTEX_POINT('',#1098);
#374=VERTEX_POINT('',#1100);
#375=VERTEX_POINT('',#1102);
#376=VERTEX_POINT('',#1104);
#377=VERTEX_POINT('',#1106);
#378=VERTEX_POINT('',#1108);
#379=VERTEX_POINT('',#1110);
#380=VERTEX_POINT('',#1112);
#381=VERTEX_POINT('',#1114);
#382=VERTEX_POINT('',#1116);
#383=VERTEX_POINT('',#1118);
#384=VERTEX_POINT('',#1120);
#385=VERTEX_POINT('',#1122);
#386=VERTEX_POINT('',#1124);
#387=VERTEX_POINT('',#1126);
#388=VERTEX_POINT('',#1128);
#389=VERTEX_POINT('',#1130);
#390=VERTEX_POINT('',#1132);
#391=VERTEX_POINT('',#1136);
#392=VERTEX_POINT('',#1137);
#393=VERTEX_POINT('',#1139);
#394=VERTEX_POINT('',#1141);
#395=VERTEX_POINT('',#1145);
#396=VERTEX_POINT('',#1146);
#397=VERTEX_POINT('',#1151);
#398=VERTEX_POINT('',#1155);
#399=VERTEX_POINT('',#1159);
#400=VERTEX_POINT('',#1163);
#401=VERTEX_POINT('',#1167);
#402=VERTEX_POINT('',#1171);
#403=VERTEX_POINT('',#1175);
#404=VERTEX_POINT('',#1179);
#405=VERTEX_POINT('',#1180);
#406=VERTEX_POINT('',#1183);
#407=VERTEX_POINT('',#1185);
#408=VERTEX_POINT('',#1190);
#409=VERTEX_POINT('',#1196);
#410=VERTEX_POINT('',#1197);
#411=VERTEX_POINT('',#1204);
#412=VERTEX_POINT('',#1205);
#413=VERTEX_POINT('',#1210);
#414=VERTEX_POINT('',#1214);
#415=VERTEX_POINT('',#1218);
#416=VERTEX_POINT('',#1222);
#417=VERTEX_POINT('',#1226);
#418=VERTEX_POINT('',#1230);
#419=VERTEX_POINT('',#1237);
#420=VERTEX_POINT('',#1239);
#421=VERTEX_POINT('',#1243);
#422=VERTEX_POINT('',#1244);
#423=VERTEX_POINT('',#1246);
#424=VERTEX_POINT('',#1248);
#425=VERTEX_POINT('',#1252);
#426=VERTEX_POINT('',#1254);
#427=VERTEX_POINT('',#1258);
#428=VERTEX_POINT('',#1260);
#429=VERTEX_POINT('',#1267);
#430=VERTEX_POINT('',#1268);
#431=VERTEX_POINT('',#1273);
#432=VERTEX_POINT('',#1275);
#433=VERTEX_POINT('',#1279);
#434=VERTEX_POINT('',#1281);
#435=VERTEX_POINT('',#1285);
#436=VERTEX_POINT('',#1287);
#437=VERTEX_POINT('',#1291);
#438=VERTEX_POINT('',#1293);
#439=VERTEX_POINT('',#1297);
#440=VERTEX_POINT('',#1299);
#441=VERTEX_POINT('',#1303);
#442=VERTEX_POINT('',#1305);
#443=EDGE_CURVE('',#367,#367,#365,.T.);
#444=EDGE_CURVE('',#367,#368,#141,.T.);
#445=EDGE_CURVE('',#368,#368,#366,.T.);
#446=EDGE_CURVE('',#369,#370,#142,.T.);
#447=EDGE_CURVE('',#370,#371,#143,.T.);
#448=EDGE_CURVE('',#371,#372,#144,.T.);
#449=EDGE_CURVE('',#372,#373,#145,.T.);
#450=EDGE_CURVE('',#373,#374,#146,.T.);
#451=EDGE_CURVE('',#374,#375,#147,.T.);
#452=EDGE_CURVE('',#375,#376,#148,.T.);
#453=EDGE_CURVE('',#376,#377,#149,.T.);
#454=EDGE_CURVE('',#377,#378,#150,.T.);
#455=EDGE_CURVE('',#378,#379,#151,.T.);
#456=EDGE_CURVE('',#379,#380,#152,.T.);
#457=EDGE_CURVE('',#380,#381,#153,.T.);
#458=EDGE_CURVE('',#381,#382,#154,.T.);
#459=EDGE_CURVE('',#382,#383,#155,.T.);
#460=EDGE_CURVE('',#383,#384,#156,.T.);
#461=EDGE_CURVE('',#384,#385,#157,.T.);
#462=EDGE_CURVE('',#385,#386,#158,.T.);
#463=EDGE_CURVE('',#386,#387,#159,.T.);
#464=EDGE_CURVE('',#387,#388,#160,.T.);
#465=EDGE_CURVE('',#388,#389,#161,.T.);
#466=EDGE_CURVE('',#389,#390,#162,.T.);
#467=EDGE_CURVE('',#390,#369,#163,.T.);
#468=EDGE_CURVE('',#391,#392,#164,.T.);
#469=EDGE_CURVE('',#392,#393,#165,.T.);
#470=EDGE_CURVE('',#393,#394,#166,.T.);
#471=EDGE_CURVE('',#394,#391,#167,.T.);
#472=EDGE_CURVE('',#395,#396,#168,.T.);
#473=EDGE_CURVE('',#395,#377,#169,.T.);
#474=EDGE_CURVE('',#396,#376,#170,.T.);
#475=EDGE_CURVE('',#396,#397,#171,.T.);
#476=EDGE_CURVE('',#397,#375,#172,.T.);
#477=EDGE_CURVE('',#397,#398,#173,.T.);
#478=EDGE_CURVE('',#398,#374,#174,.T.);
#479=EDGE_CURVE('',#398,#399,#175,.T.);
#480=EDGE_CURVE('',#399,#373,#176,.T.);
#481=EDGE_CURVE('',#399,#400,#177,.T.);
#482=EDGE_CURVE('',#400,#372,#178,.T.);
#483=EDGE_CURVE('',#400,#401,#179,.T.);
#484=EDGE_CURVE('',#401,#371,#180,.T.);
#485=EDGE_CURVE('',#401,#402,#181,.T.);
#486=EDGE_CURVE('',#402,#370,#182,.T.);
#487=EDGE_CURVE('',#402,#403,#183,.T.);
#488=EDGE_CURVE('',#403,#369,#184,.T.);
#489=EDGE_CURVE('',#404,#405,#185,.T.);
#490=EDGE_CURVE('',#404,#391,#186,.T.);
#491=EDGE_CURVE('',#406,#394,#187,.T.);
#492=EDGE_CURVE('',#407,#406,#188,.T.);
#493=EDGE_CURVE('',#407,#380,#189,.T.);
#494=EDGE_CURVE('',#405,#379,#190,.T.);
#495=EDGE_CURVE('',#405,#408,#191,.T.);
#496=EDGE_CURVE('',#408,#378,#192,.T.);
#497=EDGE_CURVE('',#408,#395,#193,.T.);
#498=EDGE_CURVE('',#409,#410,#194,.T.);
#499=EDGE_CURVE('',#409,#382,#195,.T.);
#500=EDGE_CURVE('',#410,#381,#196,.T.);
#501=EDGE_CURVE('',#410,#407,#197,.T.);
#502=EDGE_CURVE('',#411,#412,#198,.T.);
#503=EDGE_CURVE('',#411,#390,#199,.T.);
#504=EDGE_CURVE('',#412,#389,#200,.T.);
#505=EDGE_CURVE('',#412,#413,#201,.T.);
#506=EDGE_CURVE('',#413,#388,#202,.T.);
#507=EDGE_CURVE('',#413,#414,#203,.T.);
#508=EDGE_CURVE('',#414,#387,#204,.T.);
#509=EDGE_CURVE('',#414,#415,#205,.T.);
#510=EDGE_CURVE('',#415,#386,#206,.T.);
#511=EDGE_CURVE('',#415,#416,#207,.T.);
#512=EDGE_CURVE('',#416,#385,#208,.T.);
#513=EDGE_CURVE('',#416,#417,#209,.T.);
#514=EDGE_CURVE('',#417,#384,#210,.T.);
#515=EDGE_CURVE('',#417,#418,#211,.T.);
#516=EDGE_CURVE('',#418,#383,#212,.T.);
#517=EDGE_CURVE('',#418,#409,#213,.T.);
#518=EDGE_CURVE('',#411,#403,#214,.T.);
#519=EDGE_CURVE('',#406,#419,#215,.T.);
#520=EDGE_CURVE('',#419,#420,#216,.T.);
#521=EDGE_CURVE('',#404,#420,#217,.T.);
#522=EDGE_CURVE('',#421,#422,#218,.T.);
#523=EDGE_CURVE('',#423,#422,#219,.T.);
#524=EDGE_CURVE('',#424,#423,#220,.T.);
#525=EDGE_CURVE('',#421,#424,#221,.T.);
#526=EDGE_CURVE('',#425,#421,#222,.T.);
#527=EDGE_CURVE('',#426,#424,#223,.T.);
#528=EDGE_CURVE('',#425,#426,#224,.T.);
#529=EDGE_CURVE('',#427,#425,#225,.T.);
#530=EDGE_CURVE('',#428,#426,#226,.T.);
#531=EDGE_CURVE('',#427,#428,#227,.T.);
#532=EDGE_CURVE('',#420,#428,#228,.T.);
#533=EDGE_CURVE('',#419,#427,#229,.T.);
#534=EDGE_CURVE('',#429,#430,#230,.T.);
#535=EDGE_CURVE('',#430,#423,#231,.T.);
#536=EDGE_CURVE('',#422,#429,#232,.T.);
#537=EDGE_CURVE('',#429,#431,#233,.T.);
#538=EDGE_CURVE('',#431,#432,#234,.T.);
#539=EDGE_CURVE('',#432,#430,#235,.T.);
#540=EDGE_CURVE('',#433,#392,#236,.T.);
#541=EDGE_CURVE('',#434,#433,#237,.T.);
#542=EDGE_CURVE('',#434,#393,#238,.T.);
#543=EDGE_CURVE('',#435,#434,#239,.T.);
#544=EDGE_CURVE('',#436,#433,#240,.T.);
#545=EDGE_CURVE('',#435,#436,#241,.T.);
#546=EDGE_CURVE('',#435,#437,#242,.T.);
#547=EDGE_CURVE('',#438,#436,#243,.T.);
#548=EDGE_CURVE('',#437,#438,#244,.T.);
#549=EDGE_CURVE('',#439,#437,#245,.T.);
#550=EDGE_CURVE('',#440,#438,#246,.T.);
#551=EDGE_CURVE('',#439,#440,#247,.T.);
#552=EDGE_CURVE('',#441,#439,#248,.T.);
#553=EDGE_CURVE('',#442,#440,#249,.T.);
#554=EDGE_CURVE('',#441,#442,#250,.T.);
#555=EDGE_CURVE('',#441,#431,#251,.T.);
#556=EDGE_CURVE('',#432,#442,#252,.T.);
#557=ORIENTED_EDGE('',*,*,#443,.F.);
#558=ORIENTED_EDGE('',*,*,#444,.T.);
#559=ORIENTED_EDGE('',*,*,#445,.F.);
#560=ORIENTED_EDGE('',*,*,#444,.F.);
#561=ORIENTED_EDGE('',*,*,#446,.T.);
#562=ORIENTED_EDGE('',*,*,#447,.T.);
#563=ORIENTED_EDGE('',*,*,#448,.T.);
#564=ORIENTED_EDGE('',*,*,#449,.T.);
#565=ORIENTED_EDGE('',*,*,#450,.T.);
#566=ORIENTED_EDGE('',*,*,#451,.T.);
#567=ORIENTED_EDGE('',*,*,#452,.T.);
#568=ORIENTED_EDGE('',*,*,#453,.T.);
#569=ORIENTED_EDGE('',*,*,#454,.T.);
#570=ORIENTED_EDGE('',*,*,#455,.T.);
#571=ORIENTED_EDGE('',*,*,#456,.T.);
#572=ORIENTED_EDGE('',*,*,#457,.T.);
#573=ORIENTED_EDGE('',*,*,#458,.T.);
#574=ORIENTED_EDGE('',*,*,#459,.T.);
#575=ORIENTED_EDGE('',*,*,#460,.T.);
#576=ORIENTED_EDGE('',*,*,#461,.T.);
#577=ORIENTED_EDGE('',*,*,#462,.T.);
#578=ORIENTED_EDGE('',*,*,#463,.T.);
#579=ORIENTED_EDGE('',*,*,#464,.T.);
#580=ORIENTED_EDGE('',*,*,#465,.T.);
#581=ORIENTED_EDGE('',*,*,#466,.T.);
#582=ORIENTED_EDGE('',*,*,#467,.T.);
#583=ORIENTED_EDGE('',*,*,#468,.T.);
#584=ORIENTED_EDGE('',*,*,#469,.T.);
#585=ORIENTED_EDGE('',*,*,#470,.T.);
#586=ORIENTED_EDGE('',*,*,#471,.T.);
#587=ORIENTED_EDGE('',*,*,#472,.F.);
#588=ORIENTED_EDGE('',*,*,#473,.T.);
#589=ORIENTED_EDGE('',*,*,#453,.F.);
#590=ORIENTED_EDGE('',*,*,#474,.F.);
#591=ORIENTED_EDGE('',*,*,#475,.F.);
#592=ORIENTED_EDGE('',*,*,#474,.T.);
#593=ORIENTED_EDGE('',*,*,#452,.F.);
#594=ORIENTED_EDGE('',*,*,#476,.F.);
#595=ORIENTED_EDGE('',*,*,#477,.F.);
#596=ORIENTED_EDGE('',*,*,#476,.T.);
#597=ORIENTED_EDGE('',*,*,#451,.F.);
#598=ORIENTED_EDGE('',*,*,#478,.F.);
#599=ORIENTED_EDGE('',*,*,#479,.F.);
#600=ORIENTED_EDGE('',*,*,#478,.T.);
#601=ORIENTED_EDGE('',*,*,#450,.F.);
#602=ORIENTED_EDGE('',*,*,#480,.F.);
#603=ORIENTED_EDGE('',*,*,#481,.F.);
#604=ORIENTED_EDGE('',*,*,#480,.T.);
#605=ORIENTED_EDGE('',*,*,#449,.F.);
#606=ORIENTED_EDGE('',*,*,#482,.F.);
#607=ORIENTED_EDGE('',*,*,#483,.F.);
#608=ORIENTED_EDGE('',*,*,#482,.T.);
#609=ORIENTED_EDGE('',*,*,#448,.F.);
#610=ORIENTED_EDGE('',*,*,#484,.F.);
#611=ORIENTED_EDGE('',*,*,#485,.F.);
#612=ORIENTED_EDGE('',*,*,#484,.T.);
#613=ORIENTED_EDGE('',*,*,#447,.F.);
#614=ORIENTED_EDGE('',*,*,#486,.F.);
#615=ORIENTED_EDGE('',*,*,#487,.F.);
#616=ORIENTED_EDGE('',*,*,#486,.T.);
#617=ORIENTED_EDGE('',*,*,#446,.F.);
#618=ORIENTED_EDGE('',*,*,#488,.F.);
#619=ORIENTED_EDGE('',*,*,#489,.F.);
#620=ORIENTED_EDGE('',*,*,#490,.T.);
#621=ORIENTED_EDGE('',*,*,#471,.F.);
#622=ORIENTED_EDGE('',*,*,#491,.F.);
#623=ORIENTED_EDGE('',*,*,#492,.F.);
#624=ORIENTED_EDGE('',*,*,#493,.T.);
#625=ORIENTED_EDGE('',*,*,#456,.F.);
#626=ORIENTED_EDGE('',*,*,#494,.F.);
#627=ORIENTED_EDGE('',*,*,#495,.F.);
#628=ORIENTED_EDGE('',*,*,#494,.T.);
#629=ORIENTED_EDGE('',*,*,#455,.F.);
#630=ORIENTED_EDGE('',*,*,#496,.F.);
#631=ORIENTED_EDGE('',*,*,#497,.F.);
#632=ORIENTED_EDGE('',*,*,#496,.T.);
#633=ORIENTED_EDGE('',*,*,#454,.F.);
#634=ORIENTED_EDGE('',*,*,#473,.F.);
#635=ORIENTED_EDGE('',*,*,#498,.F.);
#636=ORIENTED_EDGE('',*,*,#499,.T.);
#637=ORIENTED_EDGE('',*,*,#458,.F.);
#638=ORIENTED_EDGE('',*,*,#500,.F.);
#639=ORIENTED_EDGE('',*,*,#501,.F.);
#640=ORIENTED_EDGE('',*,*,#500,.T.);
#641=ORIENTED_EDGE('',*,*,#457,.F.);
#642=ORIENTED_EDGE('',*,*,#493,.F.);
#643=ORIENTED_EDGE('',*,*,#502,.F.);
#644=ORIENTED_EDGE('',*,*,#503,.T.);
#645=ORIENTED_EDGE('',*,*,#466,.F.);
#646=ORIENTED_EDGE('',*,*,#504,.F.);
#647=ORIENTED_EDGE('',*,*,#505,.F.);
#648=ORIENTED_EDGE('',*,*,#504,.T.);
#649=ORIENTED_EDGE('',*,*,#465,.F.);
#650=ORIENTED_EDGE('',*,*,#506,.F.);
#651=ORIENTED_EDGE('',*,*,#507,.F.);
#652=ORIENTED_EDGE('',*,*,#506,.T.);
#653=ORIENTED_EDGE('',*,*,#464,.F.);
#654=ORIENTED_EDGE('',*,*,#508,.F.);
#655=ORIENTED_EDGE('',*,*,#509,.F.);
#656=ORIENTED_EDGE('',*,*,#508,.T.);
#657=ORIENTED_EDGE('',*,*,#463,.F.);
#658=ORIENTED_EDGE('',*,*,#510,.F.);
#659=ORIENTED_EDGE('',*,*,#511,.F.);
#660=ORIENTED_EDGE('',*,*,#510,.T.);
#661=ORIENTED_EDGE('',*,*,#462,.F.);
#662=ORIENTED_EDGE('',*,*,#512,.F.);
#663=ORIENTED_EDGE('',*,*,#513,.F.);
#664=ORIENTED_EDGE('',*,*,#512,.T.);
#665=ORIENTED_EDGE('',*,*,#461,.F.);
#666=ORIENTED_EDGE('',*,*,#514,.F.);
#667=ORIENTED_EDGE('',*,*,#515,.F.);
#668=ORIENTED_EDGE('',*,*,#514,.T.);
#669=ORIENTED_EDGE('',*,*,#460,.F.);
#670=ORIENTED_EDGE('',*,*,#516,.F.);
#671=ORIENTED_EDGE('',*,*,#517,.F.);
#672=ORIENTED_EDGE('',*,*,#516,.T.);
#673=ORIENTED_EDGE('',*,*,#459,.F.);
#674=ORIENTED_EDGE('',*,*,#499,.F.);
#675=ORIENTED_EDGE('',*,*,#487,.T.);
#676=ORIENTED_EDGE('',*,*,#518,.F.);
#677=ORIENTED_EDGE('',*,*,#502,.T.);
#678=ORIENTED_EDGE('',*,*,#505,.T.);
#679=ORIENTED_EDGE('',*,*,#507,.T.);
#680=ORIENTED_EDGE('',*,*,#509,.T.);
#681=ORIENTED_EDGE('',*,*,#511,.T.);
#682=ORIENTED_EDGE('',*,*,#513,.T.);
#683=ORIENTED_EDGE('',*,*,#515,.T.);
#684=ORIENTED_EDGE('',*,*,#517,.T.);
#685=ORIENTED_EDGE('',*,*,#498,.T.);
#686=ORIENTED_EDGE('',*,*,#501,.T.);
#687=ORIENTED_EDGE('',*,*,#492,.T.);
#688=ORIENTED_EDGE('',*,*,#519,.T.);
#689=ORIENTED_EDGE('',*,*,#520,.T.);
#690=ORIENTED_EDGE('',*,*,#521,.F.);
#691=ORIENTED_EDGE('',*,*,#489,.T.);
#692=ORIENTED_EDGE('',*,*,#495,.T.);
#693=ORIENTED_EDGE('',*,*,#497,.T.);
#694=ORIENTED_EDGE('',*,*,#472,.T.);
#695=ORIENTED_EDGE('',*,*,#475,.T.);
#696=ORIENTED_EDGE('',*,*,#477,.T.);
#697=ORIENTED_EDGE('',*,*,#479,.T.);
#698=ORIENTED_EDGE('',*,*,#481,.T.);
#699=ORIENTED_EDGE('',*,*,#483,.T.);
#700=ORIENTED_EDGE('',*,*,#485,.T.);
#701=ORIENTED_EDGE('',*,*,#445,.T.);
#702=ORIENTED_EDGE('',*,*,#522,.T.);
#703=ORIENTED_EDGE('',*,*,#523,.F.);
#704=ORIENTED_EDGE('',*,*,#524,.F.);
#705=ORIENTED_EDGE('',*,*,#525,.F.);
#706=ORIENTED_EDGE('',*,*,#526,.T.);
#707=ORIENTED_EDGE('',*,*,#525,.T.);
#708=ORIENTED_EDGE('',*,*,#527,.F.);
#709=ORIENTED_EDGE('',*,*,#528,.F.);
#710=ORIENTED_EDGE('',*,*,#529,.T.);
#711=ORIENTED_EDGE('',*,*,#528,.T.);
#712=ORIENTED_EDGE('',*,*,#530,.F.);
#713=ORIENTED_EDGE('',*,*,#531,.F.);
#714=ORIENTED_EDGE('',*,*,#531,.T.);
#715=ORIENTED_EDGE('',*,*,#532,.F.);
#716=ORIENTED_EDGE('',*,*,#520,.F.);
#717=ORIENTED_EDGE('',*,*,#533,.T.);
#718=ORIENTED_EDGE('',*,*,#534,.T.);
#719=ORIENTED_EDGE('',*,*,#535,.T.);
#720=ORIENTED_EDGE('',*,*,#523,.T.);
#721=ORIENTED_EDGE('',*,*,#536,.T.);
#722=ORIENTED_EDGE('',*,*,#537,.T.);
#723=ORIENTED_EDGE('',*,*,#538,.T.);
#724=ORIENTED_EDGE('',*,*,#539,.T.);
#725=ORIENTED_EDGE('',*,*,#534,.F.);
#726=ORIENTED_EDGE('',*,*,#540,.F.);
#727=ORIENTED_EDGE('',*,*,#541,.F.);
#728=ORIENTED_EDGE('',*,*,#542,.T.);
#729=ORIENTED_EDGE('',*,*,#469,.F.);
#730=ORIENTED_EDGE('',*,*,#467,.F.);
#731=ORIENTED_EDGE('',*,*,#503,.F.);
#732=ORIENTED_EDGE('',*,*,#518,.T.);
#733=ORIENTED_EDGE('',*,*,#488,.T.);
#734=ORIENTED_EDGE('',*,*,#543,.T.);
#735=ORIENTED_EDGE('',*,*,#541,.T.);
#736=ORIENTED_EDGE('',*,*,#544,.F.);
#737=ORIENTED_EDGE('',*,*,#545,.F.);
#738=ORIENTED_EDGE('',*,*,#546,.F.);
#739=ORIENTED_EDGE('',*,*,#545,.T.);
#740=ORIENTED_EDGE('',*,*,#547,.F.);
#741=ORIENTED_EDGE('',*,*,#548,.F.);
#742=ORIENTED_EDGE('',*,*,#549,.T.);
#743=ORIENTED_EDGE('',*,*,#548,.T.);
#744=ORIENTED_EDGE('',*,*,#550,.F.);
#745=ORIENTED_EDGE('',*,*,#551,.F.);
#746=ORIENTED_EDGE('',*,*,#443,.T.);
#747=ORIENTED_EDGE('',*,*,#552,.T.);
#748=ORIENTED_EDGE('',*,*,#551,.T.);
#749=ORIENTED_EDGE('',*,*,#553,.F.);
#750=ORIENTED_EDGE('',*,*,#554,.F.);
#751=ORIENTED_EDGE('',*,*,#555,.F.);
#752=ORIENTED_EDGE('',*,*,#554,.T.);
#753=ORIENTED_EDGE('',*,*,#556,.F.);
#754=ORIENTED_EDGE('',*,*,#538,.F.);
#755=ORIENTED_EDGE('',*,*,#555,.T.);
#756=ORIENTED_EDGE('',*,*,#537,.F.);
#757=ORIENTED_EDGE('',*,*,#536,.F.);
#758=ORIENTED_EDGE('',*,*,#522,.F.);
#759=ORIENTED_EDGE('',*,*,#526,.F.);
#760=ORIENTED_EDGE('',*,*,#529,.F.);
#761=ORIENTED_EDGE('',*,*,#533,.F.);
#762=ORIENTED_EDGE('',*,*,#519,.F.);
#763=ORIENTED_EDGE('',*,*,#491,.T.);
#764=ORIENTED_EDGE('',*,*,#470,.F.);
#765=ORIENTED_EDGE('',*,*,#542,.F.);
#766=ORIENTED_EDGE('',*,*,#543,.F.);
#767=ORIENTED_EDGE('',*,*,#546,.T.);
#768=ORIENTED_EDGE('',*,*,#549,.F.);
#769=ORIENTED_EDGE('',*,*,#552,.F.);
#770=ORIENTED_EDGE('',*,*,#556,.T.);
#771=ORIENTED_EDGE('',*,*,#553,.T.);
#772=ORIENTED_EDGE('',*,*,#550,.T.);
#773=ORIENTED_EDGE('',*,*,#547,.T.);
#774=ORIENTED_EDGE('',*,*,#544,.T.);
#775=ORIENTED_EDGE('',*,*,#540,.T.);
#776=ORIENTED_EDGE('',*,*,#468,.F.);
#777=ORIENTED_EDGE('',*,*,#490,.F.);
#778=ORIENTED_EDGE('',*,*,#521,.T.);
#779=ORIENTED_EDGE('',*,*,#532,.T.);
#780=ORIENTED_EDGE('',*,*,#530,.T.);
#781=ORIENTED_EDGE('',*,*,#527,.T.);
#782=ORIENTED_EDGE('',*,*,#524,.T.);
#783=ORIENTED_EDGE('',*,*,#535,.F.);
#784=ORIENTED_EDGE('',*,*,#539,.F.);
#785=CYLINDRICAL_SURFACE('',#840,1.99999999999999);
#786=ADVANCED_FACE('',(#60),#785,.F.);
#787=ADVANCED_FACE('',(#61),#22,.F.);
#788=ADVANCED_FACE('',(#62),#23,.T.);
#789=ADVANCED_FACE('',(#63),#24,.T.);
#790=ADVANCED_FACE('',(#64),#25,.T.);
#791=ADVANCED_FACE('',(#65),#26,.T.);
#792=ADVANCED_FACE('',(#66),#27,.T.);
#793=ADVANCED_FACE('',(#67),#28,.T.);
#794=ADVANCED_FACE('',(#68),#29,.T.);
#795=ADVANCED_FACE('',(#69),#30,.T.);
#796=ADVANCED_FACE('',(#70),#31,.T.);
#797=ADVANCED_FACE('',(#71),#32,.T.);
#798=ADVANCED_FACE('',(#72),#33,.T.);
#799=ADVANCED_FACE('',(#73),#34,.T.);
#800=ADVANCED_FACE('',(#74),#35,.T.);
#801=ADVANCED_FACE('',(#75),#36,.T.);
#802=ADVANCED_FACE('',(#76),#37,.T.);
#803=ADVANCED_FACE('',(#77),#38,.T.);
#804=ADVANCED_FACE('',(#78),#39,.T.);
#805=ADVANCED_FACE('',(#79),#40,.T.);
#806=ADVANCED_FACE('',(#80),#41,.T.);
#807=ADVANCED_FACE('',(#81),#42,.T.);
#808=ADVANCED_FACE('',(#82),#43,.T.);
#809=ADVANCED_FACE('',(#83),#44,.T.);
#810=ADVANCED_FACE('',(#84,#19),#45,.T.);
#811=ADVANCED_FACE('',(#85),#46,.T.);
#812=ADVANCED_FACE('',(#86),#47,.T.);
#813=ADVANCED_FACE('',(#87),#48,.T.);
#814=ADVANCED_FACE('',(#88),#49,.T.);
#815=ADVANCED_FACE('',(#89),#50,.T.);
#816=ADVANCED_FACE('',(#90),#51,.T.);
#817=ADVANCED_FACE('',(#91,#20),#52,.T.);
#818=ADVANCED_FACE('',(#92),#53,.T.);
#819=ADVANCED_FACE('',(#93),#54,.T.);
#820=ADVANCED_FACE('',(#94,#21),#55,.T.);
#821=ADVANCED_FACE('',(#95),#56,.T.);
#822=ADVANCED_FACE('',(#96),#57,.T.);
#823=ADVANCED_FACE('',(#97),#58,.T.);
#824=ADVANCED_FACE('',(#98),#59,.T.);
#825=CLOSED_SHELL('',(#786,#787,#788,#789,#790,#791,#792,#793,#794,#795,
#796,#797,#798,#799,#800,#801,#802,#803,#804,#805,#806,#807,#808,#809,#810,
#811,#812,#813,#814,#815,#816,#817,#818,#819,#820,#821,#822,#823,#824));
#826=DERIVED_UNIT_ELEMENT(#828,1.);
#827=DERIVED_UNIT_ELEMENT(#1321,-3.);
#828=(
MASS_UNIT()
NAMED_UNIT(*)
SI_UNIT(.KILO.,.GRAM.)
);
#829=DERIVED_UNIT((#826,#827));
#830=MEASURE_REPRESENTATION_ITEM('density measure',
POSITIVE_RATIO_MEASURE(7850.),#829);
#831=PROPERTY_DEFINITION_REPRESENTATION(#836,#833);
#832=PROPERTY_DEFINITION_REPRESENTATION(#837,#834);
#833=REPRESENTATION('material name',(#835),#1318);
#834=REPRESENTATION('density',(#830),#1318);
#835=DESCRIPTIVE_REPRESENTATION_ITEM('Stahl','Stahl');
#836=PROPERTY_DEFINITION('material property','material name',#1333);
#837=PROPERTY_DEFINITION('material property','density of part',#1333);
#838=AXIS2_PLACEMENT_3D('',#1082,#882,#883);
#839=AXIS2_PLACEMENT_3D('',#1083,#884,#885);
#840=AXIS2_PLACEMENT_3D('',#1084,#886,#887);
#841=AXIS2_PLACEMENT_3D('',#1086,#888,#889);
#842=AXIS2_PLACEMENT_3D('',#1089,#891,#892);
#843=AXIS2_PLACEMENT_3D('',#1090,#893,#894);
#844=AXIS2_PLACEMENT_3D('',#1135,#917,#918);
#845=AXIS2_PLACEMENT_3D('',#1144,#923,#924);
#846=AXIS2_PLACEMENT_3D('',#1150,#928,#929);
#847=AXIS2_PLACEMENT_3D('',#1154,#932,#933);
#848=AXIS2_PLACEMENT_3D('',#1158,#936,#937);
#849=AXIS2_PLACEMENT_3D('',#1162,#940,#941);
#850=AXIS2_PLACEMENT_3D('',#1166,#944,#945);
#851=AXIS2_PLACEMENT_3D('',#1170,#948,#949);
#852=AXIS2_PLACEMENT_3D('',#1174,#952,#953);
#853=AXIS2_PLACEMENT_3D('',#1178,#956,#957);
#854=AXIS2_PLACEMENT_3D('',#1189,#964,#965);
#855=AXIS2_PLACEMENT_3D('',#1193,#968,#969);
#856=AXIS2_PLACEMENT_3D('',#1195,#971,#972);
#857=AXIS2_PLACEMENT_3D('',#1201,#976,#977);
#858=AXIS2_PLACEMENT_3D('',#1203,#979,#980);
#859=AXIS2_PLACEMENT_3D('',#1209,#984,#985);
#860=AXIS2_PLACEMENT_3D('',#1213,#988,#989);
#861=AXIS2_PLACEMENT_3D('',#1217,#992,#993);
#862=AXIS2_PLACEMENT_3D('',#1221,#996,#997);
#863=AXIS2_PLACEMENT_3D('',#1225,#1000,#1001);
#864=AXIS2_PLACEMENT_3D('',#1229,#1004,#1005);
#865=AXIS2_PLACEMENT_3D('',#1233,#1008,#1009);
#866=AXIS2_PLACEMENT_3D('',#1235,#1011,#1012);
#867=AXIS2_PLACEMENT_3D('',#1242,#1017,#1018);
#868=AXIS2_PLACEMENT_3D('',#1251,#1023,#1024);
#869=AXIS2_PLACEMENT_3D('',#1257,#1028,#1029);
#870=AXIS2_PLACEMENT_3D('',#1263,#1033,#1034);
#871=AXIS2_PLACEMENT_3D('',#1266,#1037,#1038);
#872=AXIS2_PLACEMENT_3D('',#1272,#1042,#1043);
#873=AXIS2_PLACEMENT_3D('',#1278,#1047,#1048);
#874=AXIS2_PLACEMENT_3D('',#1284,#1052,#1053);
#875=AXIS2_PLACEMENT_3D('',#1290,#1057,#1058);
#876=AXIS2_PLACEMENT_3D('',#1296,#1062,#1063);
#877=AXIS2_PLACEMENT_3D('',#1302,#1067,#1068);
#878=AXIS2_PLACEMENT_3D('',#1308,#1072,#1073);
#879=AXIS2_PLACEMENT_3D('',#1311,#1076,#1077);
#880=AXIS2_PLACEMENT_3D('',#1312,#1078,#1079);
#881=AXIS2_PLACEMENT_3D('',#1313,#1080,#1081);
#882=DIRECTION('axis',(0.,0.,1.));
#883=DIRECTION('refdir',(1.,0.,0.));
#884=DIRECTION('axis',(0.,0.,1.));
#885=DIRECTION('refdir',(1.,0.,0.));
#886=DIRECTION('center_axis',(-1.,0.,0.));
#887=DIRECTION('ref_axis',(0.,1.,0.));
#888=DIRECTION('center_axis',(-1.,3.56854663184055E-16,0.));
#889=DIRECTION('ref_axis',(0.,1.,0.));
#890=DIRECTION('',(-1.,0.,0.));
#891=DIRECTION('center_axis',(1.,1.24083749811047E-16,0.));
#892=DIRECTION('ref_axis',(0.,1.,0.));
#893=DIRECTION('center_axis',(-1.,0.,0.));
#894=DIRECTION('ref_axis',(0.,-1.,0.));
#895=DIRECTION('',(-1.30614473485313E-16,1.,0.));
#896=DIRECTION('',(0.,0.,-1.));
#897=DIRECTION('',(-9.2358379922575E-17,0.707106781186548,-0.707106781186548));
#898=DIRECTION('',(-1.30614442139541E-16,0.999999760013032,0.000692801470787578));
#899=DIRECTION('',(-9.2358379922575E-17,0.707106781186547,0.707106781186547));
#900=DIRECTION('',(-1.30614473485313E-16,1.,0.));
#901=DIRECTION('',(-9.23583799225753E-17,0.707106781186549,-0.707106781186546));
#902=DIRECTION('',(-1.306144734853E-16,0.999999999999907,4.31963051968159E-7));
#903=DIRECTION('',(-9.23583799226714E-17,0.707106781187285,0.70710678118581));
#904=DIRECTION('',(-1.30614473485313E-16,1.,0.));
#905=DIRECTION('',(0.,0.,1.));
#906=DIRECTION('',(1.30614473485313E-16,-1.,0.));
#907=DIRECTION('',(9.23583799226714E-17,-0.707106781187285,0.70710678118581));
#908=DIRECTION('',(1.306144734853E-16,-0.999999999999907,4.31963051968159E-7));
#909=DIRECTION('',(9.23583799225753E-17,-0.707106781186549,-0.707106781186546));
#910=DIRECTION('',(1.30614473485313E-16,-1.,0.));
#911=DIRECTION('',(9.2358379922575E-17,-0.707106781186547,0.707106781186547));
#912=DIRECTION('',(1.30614442139541E-16,-0.999999760013032,0.000692801470787578));
#913=DIRECTION('',(9.2358379922575E-17,-0.707106781186548,-0.707106781186548));
#914=DIRECTION('',(0.,0.,-1.));
#915=DIRECTION('',(1.30614473485313E-16,-1.,0.));
#916=DIRECTION('',(0.,0.,-1.));
#917=DIRECTION('center_axis',(-1.,0.,0.));
#918=DIRECTION('ref_axis',(0.,0.,1.));
#919=DIRECTION('',(0.,-1.,0.));
#920=DIRECTION('',(0.,0.,1.));
#921=DIRECTION('',(0.,1.,0.));
#922=DIRECTION('',(0.,0.,-1.));
#923=DIRECTION('center_axis',(0.,-4.31963051968159E-7,0.999999999999907));
#924=DIRECTION('ref_axis',(-1.306144734853E-16,0.999999999999907,4.31963051968159E-7));
#925=DIRECTION('',(1.24083749811035E-16,-0.999999999999907,-4.31963051968159E-7));
#926=DIRECTION('',(-1.,0.,0.));
#927=DIRECTION('',(-1.,0.,0.));
#928=DIRECTION('center_axis',(0.,0.707106781186546,0.707106781186549));
#929=DIRECTION('ref_axis',(-9.23583799225753E-17,0.707106781186549,-0.707106781186546));
#930=DIRECTION('',(8.77404609264465E-17,-0.707106781186549,0.707106781186546));
#931=DIRECTION('',(-1.,0.,0.));
#932=DIRECTION('center_axis',(0.,0.,1.));
#933=DIRECTION('ref_axis',(-1.30614473485313E-16,1.,0.));
#934=DIRECTION('',(1.24083749811047E-16,-1.,0.));
#935=DIRECTION('',(-1.,0.,0.));
#936=DIRECTION('center_axis',(0.,-0.707106781186548,0.707106781186548));
#937=DIRECTION('ref_axis',(-9.2358379922575E-17,0.707106781186548,0.707106781186548));
#938=DIRECTION('',(8.77404609264463E-17,-0.707106781186548,-0.707106781186548));
#939=DIRECTION('',(-1.,0.,0.));
#940=DIRECTION('center_axis',(0.,-0.000692801470787578,0.999999760013032));
#941=DIRECTION('ref_axis',(-1.30614442139541E-16,0.999999760013032,0.000692801470787578));
#942=DIRECTION('',(1.24083720032564E-16,-0.999999760013032,-0.000692801470787578));
#943=DIRECTION('',(-1.,0.,0.));
#944=DIRECTION('center_axis',(0.,0.707106781186548,0.707106781186548));
#945=DIRECTION('ref_axis',(-9.2358379922575E-17,0.707106781186548,-0.707106781186548));
#946=DIRECTION('',(8.77404609264463E-17,-0.707106781186548,0.707106781186548));
#947=DIRECTION('',(-1.,0.,0.));
#948=DIRECTION('center_axis',(0.,1.,0.));
#949=DIRECTION('ref_axis',(0.,0.,-1.));
#950=DIRECTION('',(0.,0.,1.));
#951=DIRECTION('',(-1.,0.,0.));
#952=DIRECTION('center_axis',(0.,0.,1.));
#953=DIRECTION('ref_axis',(-1.30614473485313E-16,1.,0.));
#954=DIRECTION('',(1.24083749811047E-16,-1.,0.));
#955=DIRECTION('',(-1.,0.,0.));
#956=DIRECTION('center_axis',(0.,1.,0.));
#957=DIRECTION('ref_axis',(0.,0.,-1.));
#958=DIRECTION('',(0.,0.,1.));
#959=DIRECTION('',(-1.,0.,0.));
#960=DIRECTION('',(-1.,0.,0.));
#961=DIRECTION('',(0.,0.,1.));
#962=DIRECTION('',(-1.,0.,0.));
#963=DIRECTION('',(-1.,0.,0.));
#964=DIRECTION('center_axis',(0.,0.,1.));
#965=DIRECTION('ref_axis',(-1.30614473485313E-16,1.,0.));
#966=DIRECTION('',(1.24083749811047E-16,-1.,0.));
#967=DIRECTION('',(-1.,0.,0.));
#968=DIRECTION('center_axis',(0.,-0.70710678118581,0.707106781187285));
#969=DIRECTION('ref_axis',(-9.23583799226714E-17,0.707106781187285,0.70710678118581));
#970=DIRECTION('',(8.77404609265378E-17,-0.707106781187285,-0.70710678118581));
#971=DIRECTION('center_axis',(0.,-0.70710678118581,-0.707106781187285));
#972=DIRECTION('ref_axis',(9.23583799226714E-17,-0.707106781187285,0.70710678118581));
#973=DIRECTION('',(-8.77404609265378E-17,0.707106781187285,-0.70710678118581));
#974=DIRECTION('',(-1.,0.,0.));
#975=DIRECTION('',(-1.,0.,0.));
#976=DIRECTION('center_axis',(0.,0.,-1.));
#977=DIRECTION('ref_axis',(1.30614473485313E-16,-1.,0.));
#978=DIRECTION('',(-1.24083749811047E-16,1.,0.));
#979=DIRECTION('center_axis',(0.,0.,-1.));
#980=DIRECTION('ref_axis',(1.30614473485313E-16,-1.,0.));
#981=DIRECTION('',(-1.24083749811047E-16,1.,0.));
#982=DIRECTION('',(-1.,0.,0.));
#983=DIRECTION('',(-1.,0.,0.));
#984=DIRECTION('center_axis',(0.,1.,0.));
#985=DIRECTION('ref_axis',(0.,0.,-1.));
#986=DIRECTION('',(0.,0.,1.));
#987=DIRECTION('',(-1.,0.,0.));
#988=DIRECTION('center_axis',(0.,0.707106781186548,-0.707106781186548));
#989=DIRECTION('ref_axis',(9.2358379922575E-17,-0.707106781186548,-0.707106781186548));
#990=DIRECTION('',(-8.77404609264463E-17,0.707106781186548,0.707106781186548));
#991=DIRECTION('',(-1.,0.,0.));
#992=DIRECTION('center_axis',(0.,-0.000692801470787578,-0.999999760013032));
#993=DIRECTION('ref_axis',(1.30614442139541E-16,-0.999999760013032,0.000692801470787578));
#994=DIRECTION('',(-1.24083720032564E-16,0.999999760013032,-0.000692801470787578));
#995=DIRECTION('',(-1.,0.,0.));
#996=DIRECTION('center_axis',(0.,-0.707106781186548,-0.707106781186548));
#997=DIRECTION('ref_axis',(9.2358379922575E-17,-0.707106781186548,0.707106781186548));
#998=DIRECTION('',(-8.77404609264463E-17,0.707106781186548,-0.707106781186548));
#999=DIRECTION('',(-1.,0.,0.));
#1000=DIRECTION('center_axis',(0.,0.,-1.));
#1001=DIRECTION('ref_axis',(1.30614473485313E-16,-1.,0.));
#1002=DIRECTION('',(-1.24083749811047E-16,1.,0.));
#1003=DIRECTION('',(-1.,0.,0.));
#1004=DIRECTION('center_axis',(0.,0.707106781186546,-0.707106781186549));
#1005=DIRECTION('ref_axis',(9.23583799225753E-17,-0.707106781186549,-0.707106781186546));
#1006=DIRECTION('',(-8.77404609264465E-17,0.707106781186549,0.707106781186546));
#1007=DIRECTION('',(-1.,0.,0.));
#1008=DIRECTION('center_axis',(0.,-4.31963051968159E-7,-0.999999999999907));
#1009=DIRECTION('ref_axis',(1.306144734853E-16,-0.999999999999907,4.31963051968159E-7));
#1010=DIRECTION('',(-1.24083749811035E-16,0.999999999999907,-4.31963051968159E-7));
#1011=DIRECTION('center_axis',(-1.,-1.24083749811047E-16,0.));
#1012=DIRECTION('ref_axis',(-1.24083749811047E-16,1.,0.));
#1013=DIRECTION('',(0.,0.,-1.));
#1014=DIRECTION('',(-1.24083749811047E-16,1.,0.));
#1015=DIRECTION('',(0.,0.,-1.));
#1016=DIRECTION('',(-1.24083749811047E-16,1.,0.));
#1017=DIRECTION('center_axis',(-0.980129331152909,-0.198359507495232,0.));
#1018=DIRECTION('ref_axis',(-0.198359507495232,0.980129331152909,0.));
#1019=DIRECTION('',(-0.198359507495232,0.980129331152909,0.));
#1020=DIRECTION('',(0.,0.,1.));
#1021=DIRECTION('',(-0.198359507495232,0.980129331152909,0.));
#1022=DIRECTION('',(0.,0.,-1.));
#1023=DIRECTION('center_axis',(0.,-1.,0.));
#1024=DIRECTION('ref_axis',(-1.,0.,0.));
#1025=DIRECTION('',(-1.,0.,0.));
#1026=DIRECTION('',(-1.,0.,0.));
#1027=DIRECTION('',(0.,0.,-1.));
#1028=DIRECTION('center_axis',(0.894427286711416,-0.447213404076906,0.));
#1029=DIRECTION('ref_axis',(-0.447213404076906,-0.894427286711416,0.));
#1030=DIRECTION('',(-0.447213404076906,-0.894427286711416,0.));
#1031=DIRECTION('',(-0.447213404076906,-0.894427286711416,0.));
#1032=DIRECTION('',(0.,0.,-1.));
#1033=DIRECTION('center_axis',(0.,-1.,0.));
#1034=DIRECTION('ref_axis',(0.,0.,1.));
#1035=DIRECTION('',(-1.,0.,0.));
#1036=DIRECTION('',(-1.,0.,0.));
#1037=DIRECTION('center_axis',(-1.,0.,0.));
#1038=DIRECTION('ref_axis',(0.,0.,1.));
#1039=DIRECTION('',(0.,0.,-1.));
#1040=DIRECTION('',(1.30614473485313E-16,-1.,0.));
#1041=DIRECTION('',(-1.30614473485313E-16,1.,0.));
#1042=DIRECTION('center_axis',(0.,1.,0.));
#1043=DIRECTION('ref_axis',(1.,0.,0.));
#1044=DIRECTION('',(1.,0.,0.));
#1045=DIRECTION('',(0.,0.,-1.));
#1046=DIRECTION('',(-1.,0.,0.));
#1047=DIRECTION('center_axis',(9.67107284245103E-16,-1.,0.));
#1048=DIRECTION('ref_axis',(-1.,-9.67107284245103E-16,0.));
#1049=DIRECTION('',(-1.,-9.67107284245103E-16,0.));
#1050=DIRECTION('',(0.,0.,-1.));
#1051=DIRECTION('',(-1.,-9.67107284245103E-16,0.));
#1052=DIRECTION('center_axis',(1.,7.23424575925922E-16,0.));
#1053=DIRECTION('ref_axis',(7.23424575925922E-16,-1.,0.));
#1054=DIRECTION('',(7.23424575925922E-16,-1.,0.));
#1055=DIRECTION('',(7.23424575925922E-16,-1.,0.));
#1056=DIRECTION('',(0.,0.,-1.));
#1057=DIRECTION('center_axis',(-0.624695047554424,-0.78086880944303,0.));
#1058=DIRECTION('ref_axis',(-0.78086880944303,0.624695047554424,0.));
#1059=DIRECTION('',(0.78086880944303,-0.624695047554424,0.));
#1060=DIRECTION('',(-0.78086880944303,0.624695047554424,0.));
#1061=DIRECTION('',(0.,0.,-1.));
#1062=DIRECTION('center_axis',(1.,-3.56854663184055E-16,0.));
#1063=DIRECTION('ref_axis',(-3.56854663184055E-16,-1.,0.));
#1064=DIRECTION('',(-3.56854663184055E-16,-1.,0.));
#1065=DIRECTION('',(-3.56854663184055E-16,-1.,0.));
#1066=DIRECTION('',(0.,0.,-1.));
#1067=DIRECTION('center_axis',(-0.62469504755443,0.780868809443025,0.));
#1068=DIRECTION('ref_axis',(0.780868809443025,0.62469504755443,0.));
#1069=DIRECTION('',(0.780868809443025,0.62469504755443,0.));
#1070=DIRECTION('',(0.780868809443025,0.62469504755443,0.));
#1071=DIRECTION('',(0.,0.,-1.));
#1072=DIRECTION('center_axis',(1.,-1.20570739829902E-15,0.));
#1073=DIRECTION('ref_axis',(-1.20570739829902E-15,-1.,0.));
#1074=DIRECTION('',(1.20570739829902E-15,1.,0.));
#1075=DIRECTION('',(-1.20570739829902E-15,-1.,0.));
#1076=DIRECTION('center_axis',(0.,0.,1.));
#1077=DIRECTION('ref_axis',(-1.,0.,0.));
#1078=DIRECTION('center_axis',(0.,0.,-1.));
#1079=DIRECTION('ref_axis',(-1.,0.,0.));
#1080=DIRECTION('',(0.,0.,1.));
#1081=DIRECTION('',(1.,0.,0.));
#1082=CARTESIAN_POINT('',(0.,0.,0.));
#1083=CARTESIAN_POINT('',(0.,0.,0.));
#1084=CARTESIAN_POINT('Origin',(-0.100000138453195,42.5,11.3));
#1085=CARTESIAN_POINT('',(-0.100000138453195,40.5,11.3));
#1086=CARTESIAN_POINT('Origin',(-0.100000138453182,42.5,11.3));
#1087=CARTESIAN_POINT('',(-4.60000122789999,40.5,11.3));
#1088=CARTESIAN_POINT('',(-0.100000138453195,40.5,11.3));
#1089=CARTESIAN_POINT('Origin',(-4.60000122789999,42.5,11.3));
#1090=CARTESIAN_POINT('Origin',(-8.10000122789999,9.39999978989363,11.2999997846782));
#1091=CARTESIAN_POINT('',(-8.10000122789999,0.,5.55558820762585));
#1092=CARTESIAN_POINT('',(-8.10000122789999,10.5468794247417,5.55558820762585));
#1093=CARTESIAN_POINT('',(-8.10000122789999,10.5468794247417,5.55558820762585));
#1094=CARTESIAN_POINT('',(-8.10000122789999,10.5468794247417,5.04126948886532));
#1095=CARTESIAN_POINT('',(-8.10000122789999,10.5468794247417,5.04126948886532));
#1096=CARTESIAN_POINT('',(-8.10000122789999,11.7668835733001,3.82126534030687));
#1097=CARTESIAN_POINT('',(-8.10000122789999,11.7668835733001,3.82126534030687));
#1098=CARTESIAN_POINT('',(-8.10000122789999,12.1290667825899,3.82151626142718));
#1099=CARTESIAN_POINT('',(-8.10000122789999,12.1290667825899,3.82151626142718));
#1100=CARTESIAN_POINT('',(-8.10000122789999,13.3488200100281,5.04126948886532));
#1101=CARTESIAN_POINT('',(-8.10000122789999,13.3488200100281,5.04126948886532));
#1102=CARTESIAN_POINT('',(-8.10000122789999,14.8488200100281,5.04126948886532));
#1103=CARTESIAN_POINT('',(-8.10000122789999,14.8488200100281,5.04126948886532));
#1104=CARTESIAN_POINT('',(-8.10000122789999,16.0639527861748,3.82613671271861));
#1105=CARTESIAN_POINT('',(-8.10000122789999,16.0639527861748,3.82613671271861));
#1106=CARTESIAN_POINT('',(-8.10000122789999,16.4261360823838,3.82613686916842));
#1107=CARTESIAN_POINT('',(-8.10000122789999,16.4261360823838,3.82613686916842));
#1108=CARTESIAN_POINT('',(-8.10000122789999,17.6412687020833,5.04126948886532));
#1109=CARTESIAN_POINT('',(-8.10000122789999,16.4261360823838,3.82613686916842));
#1110=CARTESIAN_POINT('',(-8.10000122789999,18.7999995797873,5.04126948886532));
#1111=CARTESIAN_POINT('',(-8.10000122789999,17.6412687020833,5.04126948886532));
#1112=CARTESIAN_POINT('',(-8.10000122789999,18.7999995797873,17.5587305111347));
#1113=CARTESIAN_POINT('',(-8.10000122789999,18.7999995797873,2.00000002980232));
#1114=CARTESIAN_POINT('',(-8.10000122789999,17.6412687020833,17.5587305111347));
#1115=CARTESIAN_POINT('',(-8.10000122789999,17.6412687020833,17.5587305111347));
#1116=CARTESIAN_POINT('',(-8.10000122789999,16.4261360823838,18.7738631308316));
#1117=CARTESIAN_POINT('',(-8.10000122789999,16.4261360823838,18.7738631308316));
#1118=CARTESIAN_POINT('',(-8.10000122789999,16.0639527861748,18.7738632872814));
#1119=CARTESIAN_POINT('',(-8.10000122789999,16.4261360823838,18.7738631308316));
#1120=CARTESIAN_POINT('',(-8.10000122789999,14.8488200100281,17.5587305111347));
#1121=CARTESIAN_POINT('',(-8.10000122789999,16.0639527861748,18.7738632872814));
#1122=CARTESIAN_POINT('',(-8.10000122789999,13.3488200100281,17.5587305111347));
#1123=CARTESIAN_POINT('',(-8.10000122789999,14.8488200100281,17.5587305111347));
#1124=CARTESIAN_POINT('',(-8.10000122789999,12.1290667825899,18.7784837385728));
#1125=CARTESIAN_POINT('',(-8.10000122789999,13.3488200100281,17.5587305111347));
#1126=CARTESIAN_POINT('',(-8.10000122789999,11.7668835733001,18.7787346596931));
#1127=CARTESIAN_POINT('',(-8.10000122789999,12.1290667825899,18.7784837385728));
#1128=CARTESIAN_POINT('',(-8.10000122789999,10.5468794247417,17.5587305111347));
#1129=CARTESIAN_POINT('',(-8.10000122789999,11.7668835733001,18.7787346596931));
#1130=CARTESIAN_POINT('',(-8.10000122789999,10.5468794247417,17.0444117923742));
#1131=CARTESIAN_POINT('',(-8.10000122789999,10.5468794247417,17.5587305111347));
#1132=CARTESIAN_POINT('',(-8.10000122789999,0.,17.0444117923742));
#1133=CARTESIAN_POINT('',(-8.10000122789999,10.5468794247417,17.0444117923742));
#1134=CARTESIAN_POINT('',(-8.10000122789999,0.,20.5999995395541));
#1135=CARTESIAN_POINT('Origin',(-10.1000012279,9.39999978989363,11.2999997846782));
#1136=CARTESIAN_POINT('',(-10.1000012279,18.7999995797873,2.00000002980232));
#1137=CARTESIAN_POINT('',(-10.1000012279,0.,2.00000002980232));
#1138=CARTESIAN_POINT('',(-10.1000012279,0.,2.00000002980232));
#1139=CARTESIAN_POINT('',(-10.1000012279,0.,20.5999995395541));
#1140=CARTESIAN_POINT('',(-10.1000012279,0.,20.5999995395541));
#1141=CARTESIAN_POINT('',(-10.1000012279,18.7999995797873,20.5999995395541));
#1142=CARTESIAN_POINT('',(-10.1000012279,18.7999995797873,20.5999995395541));
#1143=CARTESIAN_POINT('',(-10.1000012279,18.7999995797873,2.00000002980232));
#1144=CARTESIAN_POINT('Origin',(-4.60000122789999,16.0639527861748,3.82613671271861));
#1145=CARTESIAN_POINT('',(-4.60000122789999,16.4261360823838,3.82613686916842));
#1146=CARTESIAN_POINT('',(-4.60000122789999,16.0639527861748,3.82613671271861));
#1147=CARTESIAN_POINT('',(-4.60000122789999,8.03198001593348,3.82613324320314));
#1148=CARTESIAN_POINT('',(-4.60000122789999,16.4261360823838,3.82613686916842));
#1149=CARTESIAN_POINT('',(-4.60000122789999,16.0639527861748,3.82613671271861));
#1150=CARTESIAN_POINT('Origin',(-4.60000122789999,14.8488200100281,5.04126948886532));
#1151=CARTESIAN_POINT('',(-4.60000122789999,14.8488200100281,5.04126948886532));
#1152=CARTESIAN_POINT('',(-4.60000122789999,7.24693237973736,12.643157119156));
#1153=CARTESIAN_POINT('',(-4.60000122789999,14.8488200100281,5.04126948886532));
#1154=CARTESIAN_POINT('Origin',(-4.60000122789999,13.3488200100281,5.04126948886532));
#1155=CARTESIAN_POINT('',(-4.60000122789999,13.3488200100281,5.04126948886532));
#1156=CARTESIAN_POINT('',(-4.60000122789999,6.67441000501403,5.04126948886532));
#1157=CARTESIAN_POINT('',(-4.60000122789999,13.3488200100281,5.04126948886532));
#1158=CARTESIAN_POINT('Origin',(-4.60000122789999,12.1290667825899,3.82151626142718));
#1159=CARTESIAN_POINT('',(-4.60000122789999,12.1290667825899,3.82151626142718));
#1160=CARTESIAN_POINT('',(-4.60000122789999,13.2914210215856,4.9838705004229));
#1161=CARTESIAN_POINT('',(-4.60000122789999,12.1290667825899,3.82151626142718));
#1162=CARTESIAN_POINT('Origin',(-4.60000122789999,11.7668835733001,3.82126534030687));
#1163=CARTESIAN_POINT('',(-4.60000122789999,11.7668835733001,3.82126534030687));
#1164=CARTESIAN_POINT('',(-4.60000122789999,5.88925677517868,3.81719331083915));
#1165=CARTESIAN_POINT('',(-4.60000122789999,11.7668835733001,3.82126534030687));
#1166=CARTESIAN_POINT('Origin',(-4.60000122789999,10.5468794247417,5.04126948886532));
#1167=CARTESIAN_POINT('',(-4.60000122789999,10.5468794247417,5.04126948886532));
#1168=CARTESIAN_POINT('',(-4.60000122789999,4.02047694077258,11.5676719728344));
#1169=CARTESIAN_POINT('',(-4.60000122789999,10.5468794247417,5.04126948886532));
#1170=CARTESIAN_POINT('Origin',(-4.60000122789999,10.5468794247417,5.55558820762585));
#1171=CARTESIAN_POINT('',(-4.60000122789999,10.5468794247417,5.55558820762585));
#1172=CARTESIAN_POINT('',(-4.60000122789999,10.5468794247417,13.0777941038129));
#1173=CARTESIAN_POINT('',(-4.60000122789999,10.5468794247417,5.55558820762585));
#1174=CARTESIAN_POINT('Origin',(-4.60000122789999,0.,5.55558820762585));
#1175=CARTESIAN_POINT('',(-4.60000122789999,-6.00826738413948E-16,5.55558820762585));
#1176=CARTESIAN_POINT('',(-4.60000122789999,-9.6710833785707E-16,5.55558820762585));
#1177=CARTESIAN_POINT('',(-4.60000122789999,-6.00826738413948E-16,5.55558820762585));
#1178=CARTESIAN_POINT('Origin',(-4.60000122789999,18.7999995797873,5.04126948886532));
#1179=CARTESIAN_POINT('',(-4.60000122789999,18.7999995797873,2.00000046044589));
#1180=CARTESIAN_POINT('',(-4.60000122789999,18.7999995797873,5.04126948886532));
#1181=CARTESIAN_POINT('',(-4.60000122789999,18.7999995797873,12.8206347444327));
#1182=CARTESIAN_POINT('',(-4.60000122789999,18.7999995797873,2.00000046044589));
#1183=CARTESIAN_POINT('',(-4.60000122789999,18.7999995797873,20.5999995395541));
#1184=CARTESIAN_POINT('',(-4.60000122789999,18.7999995797873,20.5999995395541));
#1185=CARTESIAN_POINT('',(-4.60000122789999,18.7999995797873,17.5587305111347));
#1186=CARTESIAN_POINT('',(-4.60000122789999,18.7999995797873,20.5999997697771));
#1187=CARTESIAN_POINT('',(-4.60000122789999,18.7999995797873,17.5587305111347));
#1188=CARTESIAN_POINT('',(-4.60000122789999,18.7999995797873,5.04126948886532));
#1189=CARTESIAN_POINT('Origin',(-4.60000122789999,17.6412687020833,5.04126948886532));
#1190=CARTESIAN_POINT('',(-4.60000122789999,17.6412687020833,5.04126948886532));
#1191=CARTESIAN_POINT('',(-4.60000122789999,8.82063435104163,5.04126948886532));
#1192=CARTESIAN_POINT('',(-4.60000122789999,17.6412687020833,5.04126948886532));
#1193=CARTESIAN_POINT('Origin',(-4.60000122789999,16.4261360823838,3.82613686916842));
#1194=CARTESIAN_POINT('',(-4.60000122789999,16.5130678444872,3.91306863127161));
#1195=CARTESIAN_POINT('Origin',(-4.60000122789999,17.6412687020833,17.5587305111347));
#1196=CARTESIAN_POINT('',(-4.60000122789999,16.4261360823838,18.7738631308316));
#1197=CARTESIAN_POINT('',(-4.60000122789999,17.6412687020833,17.5587305111347));
#1198=CARTESIAN_POINT('',(-4.60000122789999,12.4706341543369,22.7293650588702));
#1199=CARTESIAN_POINT('',(-4.60000122789999,16.4261360823838,18.7738631308316));
#1200=CARTESIAN_POINT('',(-4.60000122789999,17.6412687020833,17.5587305111347));
#1201=CARTESIAN_POINT('Origin',(-4.60000122789999,18.7999995797873,17.5587305111347));
#1202=CARTESIAN_POINT('',(-4.60000122789999,9.39999978989363,17.5587305111347));
#1203=CARTESIAN_POINT('Origin',(-4.60000122789999,10.5468794247417,17.0444117923742));
#1204=CARTESIAN_POINT('',(-4.60000122789999,-6.00826738413948E-16,17.0444117923742));
#1205=CARTESIAN_POINT('',(-4.60000122789999,10.5468794247417,17.0444117923742));
#1206=CARTESIAN_POINT('',(-4.60000122789999,5.27343971237083,17.0444117923742));
#1207=CARTESIAN_POINT('',(-4.60000122789999,-6.00826738413948E-16,17.0444117923742));
#1208=CARTESIAN_POINT('',(-4.60000122789999,10.5468794247417,17.0444117923742));
#1209=CARTESIAN_POINT('Origin',(-4.60000122789999,10.5468794247417,17.5587305111347));
#1210=CARTESIAN_POINT('',(-4.60000122789999,10.5468794247417,17.5587305111347));
#1211=CARTESIAN_POINT('',(-4.60000122789999,10.5468794247417,19.0793652555673));
#1212=CARTESIAN_POINT('',(-4.60000122789999,10.5468794247417,17.5587305111347));
#1213=CARTESIAN_POINT('Origin',(-4.60000122789999,11.7668835733001,18.7787346596931));
#1214=CARTESIAN_POINT('',(-4.60000122789999,11.7668835733001,18.7787346596931));
#1215=CARTESIAN_POINT('',(-4.60000122789999,9.28047901505181,16.2923301014448));
#1216=CARTESIAN_POINT('',(-4.60000122789999,11.7668835733001,18.7787346596931));
#1217=CARTESIAN_POINT('Origin',(-4.60000122789999,12.1290667825899,18.7784837385728));
#1218=CARTESIAN_POINT('',(-4.60000122789999,12.1290667825899,18.7784837385728));
#1219=CARTESIAN_POINT('',(-4.60000122789999,6.0639053276915,18.7826856923578));
#1220=CARTESIAN_POINT('',(-4.60000122789999,12.1290667825899,18.7784837385728));
#1221=CARTESIAN_POINT('Origin',(-4.60000122789999,13.3488200100281,17.5587305111347));
#1222=CARTESIAN_POINT('',(-4.60000122789999,13.3488200100281,17.5587305111347));
#1223=CARTESIAN_POINT('',(-4.60000122789999,9.25129763530472,21.656252885858));
#1224=CARTESIAN_POINT('',(-4.60000122789999,13.3488200100281,17.5587305111347));
#1225=CARTESIAN_POINT('Origin',(-4.60000122789999,14.8488200100281,17.5587305111347));
#1226=CARTESIAN_POINT('',(-4.60000122789999,14.8488200100281,17.5587305111347));
#1227=CARTESIAN_POINT('',(-4.60000122789999,7.42441000501403,17.5587305111347));
#1228=CARTESIAN_POINT('',(-4.60000122789999,14.8488200100281,17.5587305111347));
#1229=CARTESIAN_POINT('Origin',(-4.60000122789999,16.0639527861748,18.7738632872814));
#1230=CARTESIAN_POINT('',(-4.60000122789999,16.0639527861748,18.7738632872814));
#1231=CARTESIAN_POINT('',(-4.60000122789999,12.5044987678107,15.2144092689173));
#1232=CARTESIAN_POINT('',(-4.60000122789999,16.0639527861748,18.7738632872814));
#1233=CARTESIAN_POINT('Origin',(-4.60000122789999,16.4261360823838,18.7738631308316));
#1234=CARTESIAN_POINT('',(-4.60000122789999,8.21306764678161,18.7738666785737));
#1235=CARTESIAN_POINT('Origin',(-4.60000122789999,-1.93421667571414E-15,
20.6));
#1236=CARTESIAN_POINT('',(-4.60000122789999,-1.93421667571414E-15,20.6));
#1237=CARTESIAN_POINT('',(-4.6000012279,60.3,20.5999995097518));
#1238=CARTESIAN_POINT('',(-4.60000122789999,-1.93421667571414E-15,20.6));
#1239=CARTESIAN_POINT('',(-4.6000012279,60.3,2.));
#1240=CARTESIAN_POINT('',(-4.6000012279,60.3,11.3));
#1241=CARTESIAN_POINT('',(-4.60000122789999,-1.93421667571414E-15,2.));
#1242=CARTESIAN_POINT('Origin',(-9.2500012279,56.1,20.6));
#1243=CARTESIAN_POINT('',(-9.2500012279,56.1,20.6));
#1244=CARTESIAN_POINT('',(-10.1000012279,60.3,20.5999995097518));
#1245=CARTESIAN_POINT('',(-9.2500012279,56.1,20.6));
#1246=CARTESIAN_POINT('',(-10.1000012279,60.3,2.));
#1247=CARTESIAN_POINT('',(-10.1000012279,60.3,20.5999995097518));
#1248=CARTESIAN_POINT('',(-9.2500012279,56.1,2.));
#1249=CARTESIAN_POINT('',(-9.2500012279,56.1,2.));
#1250=CARTESIAN_POINT('',(-9.2500012279,56.1,20.6));
#1251=CARTESIAN_POINT('Origin',(-7.0000012279,56.1,20.6));
#1252=CARTESIAN_POINT('',(-7.0000012279,56.1,20.6));
#1253=CARTESIAN_POINT('',(-7.0000012279,56.1,20.6));
#1254=CARTESIAN_POINT('',(-7.0000012279,56.1,2.));
#1255=CARTESIAN_POINT('',(-7.0000012279,56.1,2.));
#1256=CARTESIAN_POINT('',(-7.0000012279,56.1,20.6));
#1257=CARTESIAN_POINT('Origin',(-4.90000212677345,60.3000004494365,20.6));
#1258=CARTESIAN_POINT('',(-4.90000212677345,60.3000004494365,20.6));
#1259=CARTESIAN_POINT('',(-4.90000212677345,60.3000004494365,20.6));
#1260=CARTESIAN_POINT('',(-4.90000212677345,60.3000004494365,2.));
#1261=CARTESIAN_POINT('',(-4.90000212677345,60.3000004494365,2.));
#1262=CARTESIAN_POINT('',(-4.90000235149157,60.3,11.3));
#1263=CARTESIAN_POINT('Origin',(-4.6000012279,60.3,2.));
#1264=CARTESIAN_POINT('',(-4.6000012279,60.3,2.));
#1265=CARTESIAN_POINT('',(-4.6000012279,60.3,20.5999995097518));
#1266=CARTESIAN_POINT('Origin',(-10.1000012279,72.65,11.2999995097518));
#1267=CARTESIAN_POINT('',(-10.1000012279,85.,20.5999995097518));
#1268=CARTESIAN_POINT('',(-10.1000012279,85.,2.));
#1269=CARTESIAN_POINT('',(-10.1000012279,85.,1.99999950975179));
#1270=CARTESIAN_POINT('',(-10.1000012279,85.,2.));
#1271=CARTESIAN_POINT('',(-10.1000012279,85.,20.5999995097518));
#1272=CARTESIAN_POINT('Origin',(-4.6000012279,85.,20.6));
#1273=CARTESIAN_POINT('',(-2.6000012279,85.,20.6));
#1274=CARTESIAN_POINT('',(-4.6000012279,85.,20.6));
#1275=CARTESIAN_POINT('',(-2.6000012279,85.,2.));
#1276=CARTESIAN_POINT('',(-2.6000012279,85.,20.6));
#1277=CARTESIAN_POINT('',(-4.6000012279,85.,2.));
#1278=CARTESIAN_POINT('Origin',(-2.59999904900633,0.,20.6));
#1279=CARTESIAN_POINT('',(-2.59999904900633,0.,2.));
#1280=CARTESIAN_POINT('',(-2.59999904900633,0.,2.));
#1281=CARTESIAN_POINT('',(-2.59999904900633,0.,20.6));
#1282=CARTESIAN_POINT('',(-2.59999904900633,0.,20.6));
#1283=CARTESIAN_POINT('',(-2.59999904900633,0.,20.6));
#1284=CARTESIAN_POINT('Origin',(-2.59999904900633,9.20806172395372,20.6));
#1285=CARTESIAN_POINT('',(-2.59999904900633,9.20806172395372,20.6));
#1286=CARTESIAN_POINT('',(-2.59999904900633,9.20806172395372,20.6));
#1287=CARTESIAN_POINT('',(-2.59999904900633,9.20806172395372,2.));
#1288=CARTESIAN_POINT('',(-2.59999904900633,9.20806172395372,2.));
#1289=CARTESIAN_POINT('',(-2.59999904900633,9.20806172395372,20.6));
#1290=CARTESIAN_POINT('Origin',(-0.100000138453207,7.20806259551122,20.6));
#1291=CARTESIAN_POINT('',(-0.100000138453207,7.20806259551122,20.6));
#1292=CARTESIAN_POINT('',(-2.59999904900633,9.20806172395372,20.6));
#1293=CARTESIAN_POINT('',(-0.100000138453207,7.20806259551122,2.));
#1294=CARTESIAN_POINT('',(-2.59999904900633,9.20806172395372,2.));
#1295=CARTESIAN_POINT('',(-0.100000138453207,7.20806259551122,20.6));
#1296=CARTESIAN_POINT('Origin',(-0.100000138453182,77.7919374044888,20.6));
#1297=CARTESIAN_POINT('',(-0.100000138453182,77.7919374044888,20.6));
#1298=CARTESIAN_POINT('',(-0.100000138453182,77.7919374044888,20.6));
#1299=CARTESIAN_POINT('',(-0.100000138453182,77.7919374044888,2.));
#1300=CARTESIAN_POINT('',(-0.100000138453182,77.7919374044888,2.));
#1301=CARTESIAN_POINT('',(-0.100000138453182,77.7919374044888,20.6));
#1302=CARTESIAN_POINT('Origin',(-2.60000122790001,75.7919365329313,20.6));
#1303=CARTESIAN_POINT('',(-2.60000122790001,75.7919365329313,20.6));
#1304=CARTESIAN_POINT('',(-2.60000122790001,75.7919365329313,20.6));
#1305=CARTESIAN_POINT('',(-2.60000122790001,75.7919365329313,2.));
#1306=CARTESIAN_POINT('',(-2.60000122790001,75.7919365329313,2.));
#1307=CARTESIAN_POINT('',(-2.60000122790001,75.7919365329313,20.6));
#1308=CARTESIAN_POINT('Origin',(-2.6000012279,85.,20.6));
#1309=CARTESIAN_POINT('',(-2.60000122790001,75.7919365329313,20.6));
#1310=CARTESIAN_POINT('',(-2.60000122790001,75.7919365329313,2.));
#1311=CARTESIAN_POINT('Origin',(-2.35000068317659,42.5,20.6));
#1312=CARTESIAN_POINT('Origin',(-2.35000068317659,42.5,2.));
#1313=CARTESIAN_POINT('',(0.,0.,0.));
#1314=UNCERTAINTY_MEASURE_WITH_UNIT(LENGTH_MEASURE(0.01),#1320,
'DISTANCE_ACCURACY_VALUE',
'Maximum model space distance between geometric entities at asserted c
onnectivities');
#1315=UNCERTAINTY_MEASURE_WITH_UNIT(LENGTH_MEASURE(0.01),#1320,
'DISTANCE_ACCURACY_VALUE',
'Maximum model space distance between geometric entities at asserted c
onnectivities');
#1316=UNCERTAINTY_MEASURE_WITH_UNIT(LENGTH_MEASURE(0.01),#1320,
'DISTANCE_ACCURACY_VALUE',
'Maximum model space distance between geometric entities at asserted c
onnectivities');
#1317=(
GEOMETRIC_REPRESENTATION_CONTEXT(3)
GLOBAL_UNCERTAINTY_ASSIGNED_CONTEXT((#1314))
GLOBAL_UNIT_ASSIGNED_CONTEXT((#1320,#1322,#1323))
REPRESENTATION_CONTEXT('','3D')
);
#1318=(
GEOMETRIC_REPRESENTATION_CONTEXT(3)
GLOBAL_UNCERTAINTY_ASSIGNED_CONTEXT((#1315))
GLOBAL_UNIT_ASSIGNED_CONTEXT((#1320,#1322,#1323))
REPRESENTATION_CONTEXT('','3D')
);
#1319=(
GEOMETRIC_REPRESENTATION_CONTEXT(3)
GLOBAL_UNCERTAINTY_ASSIGNED_CONTEXT((#1316))
GLOBAL_UNIT_ASSIGNED_CONTEXT((#1320,#1322,#1323))
REPRESENTATION_CONTEXT('','3D')
);
#1320=(
LENGTH_UNIT()
NAMED_UNIT(*)
SI_UNIT(.MILLI.,.METRE.)
);
#1321=(
LENGTH_UNIT()
NAMED_UNIT(*)
SI_UNIT($,.METRE.)
);
#1322=(
NAMED_UNIT(*)
PLANE_ANGLE_UNIT()
SI_UNIT($,.RADIAN.)
);
#1323=(
NAMED_UNIT(*)
SI_UNIT($,.STERADIAN.)
SOLID_ANGLE_UNIT()
);
#1324=SHAPE_DEFINITION_REPRESENTATION(#1326,#1329);
#1325=SHAPE_DEFINITION_REPRESENTATION(#1327,#1330);
#1326=PRODUCT_DEFINITION_SHAPE('',$,#1332);
#1327=PRODUCT_DEFINITION_SHAPE('',$,#1333);
#1328=PRODUCT_DEFINITION_SHAPE($,$,#14);
#1329=SHAPE_REPRESENTATION('',(#838,#881),#1317);
#1330=SHAPE_REPRESENTATION('',(#839),#1318);
#1331=PRODUCT_DEFINITION_CONTEXT('part definition',#1339,'design');
#1332=PRODUCT_DEFINITION('DIN Rail V2','DIN Rail V2 v44',#1334,#1331);
#1333=PRODUCT_DEFINITION('Schienenadapter','Schienenadapter',#1335,#1331);
#1334=PRODUCT_DEFINITION_FORMATION('',$,#1341);
#1335=PRODUCT_DEFINITION_FORMATION('',$,#1342);
#1336=PRODUCT_RELATED_PRODUCT_CATEGORY('DIN Rail V2 v44',
'DIN Rail V2 v44',(#1341));
#1337=PRODUCT_RELATED_PRODUCT_CATEGORY('Schienenadapter',
'Schienenadapter',(#1342));
#1338=APPLICATION_PROTOCOL_DEFINITION('international standard',
'automotive_design',2009,#1339);
#1339=APPLICATION_CONTEXT(
'Core Data for Automotive Mechanical Design Process');
#1340=PRODUCT_CONTEXT('part definition',#1339,'mechanical');
#1341=PRODUCT('DIN Rail V2','DIN Rail V2 v44',$,(#1340));
#1342=PRODUCT('Schienenadapter','Schienenadapter',$,(#1340));
#1343=PRESENTATION_STYLE_ASSIGNMENT((#1348));
#1344=PRESENTATION_STYLE_ASSIGNMENT((#1349));
#1345=PRESENTATION_STYLE_ASSIGNMENT((#1350));
#1346=PRESENTATION_STYLE_ASSIGNMENT((#1351));
#1347=PRESENTATION_STYLE_ASSIGNMENT((#1352));
#1348=SURFACE_STYLE_USAGE(.BOTH.,#1353);
#1349=SURFACE_STYLE_USAGE(.BOTH.,#1354);
#1350=SURFACE_STYLE_USAGE(.BOTH.,#1355);
#1351=SURFACE_STYLE_USAGE(.BOTH.,#1356);
#1352=SURFACE_STYLE_USAGE(.BOTH.,#1357);
#1353=SURFACE_SIDE_STYLE('',(#1358));
#1354=SURFACE_SIDE_STYLE('',(#1359));
#1355=SURFACE_SIDE_STYLE('',(#1360));
#1356=SURFACE_SIDE_STYLE('',(#1361));
#1357=SURFACE_SIDE_STYLE('',(#1362));
#1358=SURFACE_STYLE_FILL_AREA(#1363);
#1359=SURFACE_STYLE_FILL_AREA(#1364);
#1360=SURFACE_STYLE_FILL_AREA(#1365);
#1361=SURFACE_STYLE_FILL_AREA(#1366);
#1362=SURFACE_STYLE_FILL_AREA(#1367);
#1363=FILL_AREA_STYLE('Pulverbeschichtung (Rot)',(#1368));
#1364=FILL_AREA_STYLE('Stahl - satiniert',(#1369));
#1365=FILL_AREA_STYLE('Pulverbeschichtung (Wei\X\DF)',(#1370));
#1366=FILL_AREA_STYLE('Pulverbeschichtung (Gr\X\FCn)',(#1371));
#1367=FILL_AREA_STYLE('Pulverbeschichtung (Blau)',(#1372));
#1368=FILL_AREA_STYLE_COLOUR('Pulverbeschichtung (Rot)',#1373);
#1369=FILL_AREA_STYLE_COLOUR('Stahl - satiniert',#1374);
#1370=FILL_AREA_STYLE_COLOUR('Pulverbeschichtung (Wei\X\DF)',#1375);
#1371=FILL_AREA_STYLE_COLOUR('Pulverbeschichtung (Gr\X\FCn)',#1376);
#1372=FILL_AREA_STYLE_COLOUR('Pulverbeschichtung (Blau)',#1377);
#1373=COLOUR_RGB('Pulverbeschichtung (Rot)',0.768627450980392,0.207843137254902,
0.152941176470588);
#1374=COLOUR_RGB('Stahl - satiniert',0.627450980392157,0.627450980392157,
0.627450980392157);
#1375=COLOUR_RGB('Pulverbeschichtung (Wei\X\DF)',0.964705882352941,0.964705882352941,
0.952941176470588);
#1376=COLOUR_RGB('Pulverbeschichtung (Gr\X\FCn)',0.266666666666667,0.588235294117647,
0.282352941176471);
#1377=COLOUR_RGB('Pulverbeschichtung (Blau)',0.188235294117647,0.231372549019608,
0.588235294117647);
ENDSEC;
END-ISO-10303-21;
